<svg height="300.0185714285714" version="1.1" width="357.3" xmlns="http://www.w3.org/2000/svg" style="overflow: hidden; position: relative; left: -0.84375px;" viewBox="0.3509196428571429 0.3509196428571429 357.3 300.0185714285714" preserveAspectRatio="xMinYMin"><rect x="-2015.01" y="-1691.81" width="5040" height="4232" r="0" rx="0" ry="0" fill="#ffffff" stroke="none" transform="matrix(0.3545,0,0,0.3545,0,0)" stroke-width="2.8211586901763224" style="-webkit-tap-highlight-color: rgba(0, 0, 0, 0); fill-opacity: 0;" fill-opacity="0"/><path fill="#88a4bc" stroke="#ffffff" d="M724.3,514.8L724.6999999999999,515.5999999999999L725.4,516.3999999999999L725.6,516.8999999999999L725.7,518.0999999999999L725.8000000000001,518.4999999999999L726.1,519.0999999999999L726.7,519.8L729.3000000000001,521.9L729.8000000000001,522.6L730.0000000000001,523L730.1000000000001,523.4L729.9000000000001,523.5L729.4000000000001,523.7L729.2,524L729.2,524.4L729.8000000000001,525.4L730.1,526.1L730.4,526.7L730.6999999999999,527.1L731.1999999999999,527.3000000000001L731.5999999999999,527.6L733.6999999999999,530.9L734.1999999999999,531.5L734.4999999999999,531.5L734.8999999999999,530.9L735.1999999999998,531L735.8999999999999,531.4L736.8999999999999,532.1999999999999L737.6999999999998,532.4L738.3999999999999,532.4L739.3999999999999,531.8L739.6999999999998,531.8L740.0999999999998,532L740.5999999999998,532.7L741.1999999999998,532.9000000000001L741.7999999999998,532.8000000000001L742.4999999999999,532.7L743.0999999999999,532.7L743.4999999999999,532.8000000000001L743.6999999999999,533.2L743.8,533.6L743.8,534.2L743.5999999999999,534.8000000000001L743.3,535.4000000000001L742.9,535.8000000000001L741.9,536.6L741.1,537.3000000000001L740.8000000000001,537.9000000000001L740.6,538.5000000000001L740.6,539.1000000000001L740.8000000000001,539.7000000000002L741.0000000000001,540.3000000000002L742.7000000000002,542.8000000000002L746.0000000000001,549.5000000000002L750.6000000000001,555.4000000000002L751.9000000000001,556.2000000000002L754.4000000000001,557.4000000000002L756.7,558.1000000000003L757.4000000000001,558.4000000000002L758.0000000000001,558.8000000000002L758.7000000000002,559.5000000000002L760.3000000000002,561.5000000000002L761.2000000000002,562.4000000000002L762.0000000000001,562.9000000000002L767.6000000000001,565.3000000000002L768.2000000000002,565.5000000000002L769.3000000000002,565.8000000000002L770.7000000000002,566.7000000000002L773.1000000000001,568.5000000000001L774.2000000000002,569.6000000000001L776.3000000000002,572.5000000000001L779.3000000000002,575.4000000000001L781.1000000000001,577.5000000000001L781.8000000000002,578.1000000000001L794.4000000000002,585.4000000000001L795.3000000000002,586.2L796.9000000000002,588L798.6000000000003,589.6L800.9000000000002,591.1L806.7000000000002,593.4L826.4000000000002,597.8L826.5000000000002,597.9L825.7000000000003,598.1999999999999L825.5000000000002,598.4L825.5000000000002,598.8L825.1000000000003,600.3L825.0000000000002,601L824.8000000000002,601.6L824.2000000000002,602.2L823.7000000000002,602.5L822.5000000000001,602.5L822.0000000000001,602.8L821.5000000000001,603.4L810.3000000000001,622.1L809.7,623.8000000000001L809.5,625.5000000000001L809.4,626.3000000000001L808.8,627.1L808.1999999999999,627.6L806.9,628.3000000000001L806.3,628.8000000000001L805.9,629.5000000000001L804.8,632.2000000000002L804.1999999999999,635.5000000000001L803.6999999999999,636.9000000000001L802.4999999999999,638.3000000000001L800.2999999999998,639.6L799.7999999999998,640.1L799.5999999999998,640.7L799.5999999999998,642L799.3999999999997,642.6L797.6999999999997,644.7L793.6999999999997,646.2L792.6999999999997,643.3000000000001L791.4999999999997,641.3000000000001L790.9999999999997,640.7L785.3999999999996,636.4000000000001L778.6999999999996,629.8000000000001L771.3999999999996,620.9000000000001L758.2999999999996,600.3000000000001L755.4999999999997,597.3000000000001L753.3999999999996,595.4000000000001L751.0999999999997,594.2L749.0999999999997,593.7L746.9999999999997,593.9000000000001L739.2999999999996,597.3000000000001L696.1999999999996,624.2L695.1999999999996,624.6L693.3999999999996,624.5L686.6999999999996,622.8L684.9999999999995,622.5999999999999L683.6999999999996,622.8L682.3999999999996,623.0999999999999L681.1999999999996,623.6999999999999L680.1999999999996,624.1999999999999L678.3999999999996,625.5999999999999L670.4999999999997,597.9999999999999L670.0999999999997,594.2999999999998L670.5999999999997,591.0999999999998L671.8999999999996,586.0999999999998L671.8999999999996,584.1999999999998L671.1999999999996,582.1999999999998L664.9999999999995,573.5999999999998L660.6999999999996,564.9999999999998L659.6999999999996,561.5999999999998L658.9999999999995,556.0999999999998L658.8999999999995,546.3999999999997L658.4999999999995,544.1999999999997L657.9999999999995,542.5999999999997L657.1999999999996,541.1999999999997L656.3999999999996,540.1999999999997L654.2999999999996,538.2999999999997L654.7999999999996,532.8999999999997L655.3999999999996,531.1999999999997L656.3999999999996,529.1999999999997L657.8999999999996,528.3999999999997L659.0999999999997,528.6999999999997L661.9999999999997,531.6999999999997L663.7999999999996,531.6999999999997L665.0999999999996,530.0999999999997L668.0999999999996,521.1999999999997L669.1999999999996,518.8999999999997L670.6999999999996,516.5999999999998L672.5999999999996,514.7999999999998L674.6999999999996,513.4999999999999L677.1999999999996,512.8999999999999L679.6999999999996,513.1999999999998L681.9999999999995,514.4999999999998L686.9999999999995,520.5999999999998L688.3999999999995,521.4999999999998L689.8999999999995,521.2999999999997L691.6999999999995,519.9999999999998L696.4999999999994,515.1999999999998L700.2999999999994,512.1999999999998L702.2999999999994,510.99999999999983L703.8999999999994,510.29999999999984L704.6999999999994,510.29999999999984L705.4999999999993,510.29999999999984L706.3999999999993,510.39999999999986L707.1999999999992,510.79999999999984L711.0999999999992,513.1999999999998L711.7999999999993,513.4999999999998L713.3999999999993,513.6999999999998L717.7999999999993,513.4999999999998L720.5999999999992,513.8999999999997L721.8999999999992,514.3999999999997L724.2999999999992,514.7999999999997Z" class="sm_state sm_state_SDN880" opacity="1" stroke-opacity="1" stroke-width="1.8900000000000001" stroke-linejoin="round" transform="matrix(0.3545,0,0,0.3545,0,0)" style="-webkit-tap-highlight-color: rgba(0, 0, 0, 0); opacity: 1; cursor: pointer; stroke-opacity: 1; stroke-linejoin: round; fill-opacity: 1;" fill-opacity="1"/><path fill="#88a4bc" stroke="#ffffff" d="M902.1,327.3L902,327.8L902.1,328.3L903.3000000000001,330L903.5000000000001,331.2L903.2000000000002,332.4L901.8000000000002,334.5L902.0000000000002,335.1L902.6000000000003,335.70000000000005L903.1000000000003,336.50000000000006L903.3000000000003,337.30000000000007L903.2000000000003,339.80000000000007L903.6000000000003,340.6000000000001L903.7000000000003,340.9000000000001L903.6000000000003,341.2000000000001L903.1000000000003,341.7000000000001L903.0000000000002,342.0000000000001L902.8000000000002,345.7000000000001L901.3000000000002,349.4000000000001L900.7000000000002,350.30000000000007L898.7000000000002,351.70000000000005L897.8000000000002,352.50000000000006L897.3000000000002,353.70000000000005L897.2000000000002,354.80000000000007L897.3000000000002,356.80000000000007L897.1000000000001,358.00000000000006L896.4000000000001,360.50000000000006L896.4000000000001,361.30000000000007L896.8000000000001,362.80000000000007L897.5000000000001,363.9000000000001L898.5000000000001,364.9000000000001L899.3000000000001,366.0000000000001L899.8000000000001,367.3000000000001L899.7,368.40000000000015L899.5,369.50000000000017L899.4,370.8000000000002L899.6999999999999,372.1000000000002L900.8,374.6000000000002L901,375.9000000000002L900.4,377.5000000000002L897.9,380.10000000000025L896.9,381.7000000000003L894.9,387.40000000000026L889.4,403.2000000000003L887.8,405.8000000000003L884.9,408.9000000000003L884.1,410.3000000000003L880.9,422.1000000000003L880.8,424.70000000000033L881.5999999999999,427.4000000000003L879.5999999999999,428.70000000000033L878.4999999999999,430.6000000000003L875.4999999999999,439.6000000000003L874.3999999999999,441.3000000000003L869.9999999999999,445.6000000000003L869.4999999999999,446.70000000000033L869.3999999999999,448.00000000000034L870.0999999999999,453.80000000000035L871.6999999999999,467.60000000000036L868.3,467.10000000000036L847.6999999999999,467.60000000000036L842.9,468.50000000000034L815.1,478.70000000000033L811.7,479.30000000000035L809.1,479.00000000000034L806.2,477.00000000000034L792.6,461.80000000000035L784.5,441.80000000000035L783.4,440.00000000000034L780.1999999999999,435.80000000000035L777.9,433.4000000000004L775.3,431.10000000000036L772.0999999999999,429.00000000000034L762.4999999999999,423.9000000000003L755.3999999999999,421.3000000000003L746.8999999999999,419.3000000000003L738.8999999999999,401.1000000000003L737.1999999999998,395.6000000000003L737.0999999999998,392.1000000000003L739.4999999999998,387.70000000000033L754.3999999999997,367.20000000000033L756.0999999999998,366.30000000000035L759.2999999999998,365.9000000000004L799.7999999999998,365.9000000000004L804.4999999999999,365.2000000000004L809.0999999999999,363.7000000000004L814.1999999999999,360.8000000000004L817.9,358.1000000000004L821.6,354.0000000000004L824,347.7000000000004L824.8,340.3000000000004L823.8,320.1000000000004L845,331.20000000000044L846.7,331.70000000000044L847.8000000000001,331.80000000000047L902.1,327.30000000000047Z" class="sm_state sm_state_SDN884" opacity="1" stroke-opacity="1" stroke-width="1.8900000000000001" stroke-linejoin="round" transform="matrix(0.3545,0,0,0.3545,0,0)" style="-webkit-tap-highlight-color: rgba(0, 0, 0, 0); opacity: 1; cursor: pointer; stroke-opacity: 1; stroke-linejoin: round; fill-opacity: 1;" fill-opacity="1"/><path fill="#88a4bc" stroke="#ffffff" d="M823.8,320.1L824.8,340.3L824,347.7L821.6,354L817.9,358.1L814.1999999999999,360.8L809.0999999999999,363.7L804.4999999999999,365.2L799.7999999999998,365.9L759.2999999999998,365.9L756.0999999999998,366.29999999999995L754.3999999999997,367.19999999999993L739.4999999999998,387.69999999999993L737.0999999999998,392.0999999999999L728.2999999999998,393.3999999999999L726.1999999999998,394.5999999999999L718.3999999999999,397.5999999999999L714.2999999999998,398.3999999999999L710.3999999999999,398.49999999999994L707.9999999999999,398.19999999999993L702.9999999999999,396.69999999999993L695.5999999999999,392.69999999999993L666.1999999999999,384.79999999999995L647.4999999999999,374.4L644.5999999999999,373.4L613.3,368.29999999999995L610.3,366.9L607.6999999999999,364.7L599.8,356.09999999999997L598.8,354.49999999999994L597.8,351.59999999999997L640.8,289.49999999999994L647.3,277.19999999999993L646.0999999999999,272.19999999999993L646.1999999999999,269.19999999999993L640.1999999999999,252.69999999999993L640.0999999999999,252.29999999999993L641.4999999999999,226.39999999999992L641.3999999999999,226.0999999999999L641.1999999999998,225.7999999999999L616.8999999999999,212.1999999999999L616.5999999999999,211.8999999999999L616.4999999999999,211.1999999999999L637.6999999999999,15.899999999999892L675.4999999999999,15.899999999999892L698.9999999999999,34.099999999999895L682.1999999999999,47.7999999999999L683.0999999999999,48.9999999999999L684.0999999999999,50.0999999999999L684.8999999999999,50.6999999999999L685.2999999999998,51.1999999999999L685.5999999999998,51.6999999999999L686.0999999999998,52.9999999999999L686.1999999999998,53.6999999999999L686.1999999999998,56.4999999999999L686.5999999999998,58.1999999999999L686.7999999999998,59.299999999999905L686.8999999999999,60.0999999999999L686.7999999999998,60.8999999999999L686.3999999999999,63.199999999999896L686.1999999999998,63.7999999999999L685.7999999999998,64.4999999999999L685.4999999999999,64.9999999999999L683.4999999999999,67.4999999999999L683.2999999999998,67.9999999999999L683.1999999999998,68.4999999999999L683.5999999999998,72.9999999999999L683.5999999999998,75.0999999999999L683.1999999999998,76.4999999999999L682.1999999999998,79.6999999999999L682.0999999999998,80.4999999999999L681.9999999999998,81.7999999999999L681.9999999999998,82.2999999999999L682.1999999999998,82.9999999999999L682.9999999999998,84.2999999999999L683.6999999999998,84.89999999999989L686.8999999999999,86.89999999999989L687.5999999999999,87.5999999999999L691.1999999999999,92.5999999999999L691.6999999999999,92.9999999999999L692.6999999999999,93.7999999999999L693.1999999999999,94.0999999999999L693.8,94.39999999999989L694.5,94.5999999999999L697.2,95.19999999999989L697.5,95.29999999999988L698.1,95.59999999999988L698.6,96.39999999999988L699.8000000000001,99.79999999999988L701.0000000000001,101.99999999999989L702.0000000000001,103.19999999999989L702.3000000000001,103.69999999999989L703.4000000000001,105.99999999999989L704.1000000000001,107.09999999999988L705.1000000000001,109.39999999999988L705.9000000000001,111.49999999999987L706.2,112.89999999999988L706.3000000000001,113.99999999999987L705.9000000000001,116.79999999999987L705.9000000000001,120.49999999999987L705.9000000000001,121.19999999999987L706.0000000000001,121.49999999999987L706.6000000000001,122.39999999999988L706.5000000000001,122.89999999999988L705.6000000000001,124.59999999999988L704.3000000000002,128.19999999999987L703.2000000000002,134.79999999999987L703.1000000000001,139.69999999999987L703.5000000000001,143.19999999999987L706.4000000000001,152.79999999999987L707.4000000000001,163.09999999999988L707.4000000000001,165.9999999999999L707.1000000000001,167.59999999999988L706.4000000000001,170.4999999999999L704.5000000000001,174.8999999999999L704.3000000000001,175.8999999999999L704.4000000000001,176.6999999999999L732.5000000000001,244.6999999999999L733.1000000000001,245.5999999999999L733.9000000000001,246.0999999999999L742.6000000000001,248.5999999999999L753.7000000000002,253.39999999999992L767.4000000000002,261.5999999999999L774.6000000000003,268.3999999999999L776.7000000000003,270.7999999999999L777.8000000000003,272.4999999999999L785.5000000000003,287.6999999999999L791.3000000000003,296.7999999999999L792.3000000000003,298.0999999999999L794.5000000000003,300.2999999999999L823.8000000000003,320.0999999999999Z" class="sm_state sm_state_SDN877" opacity="1" stroke-opacity="1" stroke-width="1.8900000000000001" stroke-linejoin="round" transform="matrix(0.3545,0,0,0.3545,0,0)" style="-webkit-tap-highlight-color: rgba(0, 0, 0, 0); opacity: 1; cursor: pointer; stroke-opacity: 1; stroke-linejoin: round; fill-opacity: 1;" fill-opacity="1"/><path fill="#88a4bc" stroke="#ffffff" d="M746.9,419.3L755.4,421.3L762.5,423.90000000000003L772.1,429.00000000000006L775.3000000000001,431.1000000000001L777.9000000000001,433.4000000000001L780.2,435.80000000000007L783.4000000000001,440.00000000000006L784.5000000000001,441.80000000000007L792.6000000000001,461.80000000000007L806.2000000000002,477.00000000000006L809.1000000000001,479.00000000000006L811.7000000000002,479.30000000000007L815.1000000000001,478.70000000000005L842.9000000000001,468.50000000000006L847.7,467.6000000000001L868.3000000000001,467.1000000000001L871.7,467.6000000000001L873.3000000000001,481.2000000000001L874.2,488.9000000000001L875.5,500.1000000000001L870.2,516.8000000000001L869.9000000000001,518.1L870.0000000000001,519.7L870.3000000000001,521.2L871.3000000000001,524.3000000000001L871.5000000000001,527.3000000000001L867.9000000000001,536.1L867.7,537.4L867.5,540.8L867,542.5999999999999L858.1,555.3999999999999L852.4,575.4999999999999L852.5,576.5999999999999L853,577.5999999999999L853.2,578.0999999999999L853.2,578.6999999999999L852.6,579.5999999999999L851.8000000000001,580.4999999999999L851.1,581.4999999999999L851.1,582.7999999999998L852.5,585.2999999999998L852.8,586.1999999999998L852.8,587.6999999999998L851.5999999999999,594.3999999999999L851.0999999999999,595.5999999999999L850.1999999999999,595.9999999999999L848.5999999999999,595.5999999999999L847.3,594.8L846.5999999999999,594.6999999999999L845.9999999999999,594.6999999999999L828.0999999999999,597.3L826.4999999999999,597.9L826.3999999999999,597.8L806.6999999999998,593.4L800.8999999999999,591.1L798.5999999999999,589.6L796.8999999999999,588L795.2999999999998,586.2L794.3999999999999,585.4000000000001L781.7999999999998,578.1000000000001L781.0999999999998,577.5000000000001L779.2999999999998,575.4000000000001L776.2999999999998,572.5000000000001L774.1999999999998,569.6000000000001L773.0999999999998,568.5000000000001L770.6999999999998,566.7000000000002L769.2999999999998,565.8000000000002L768.1999999999998,565.5000000000002L767.5999999999998,565.3000000000002L761.9999999999998,562.9000000000002L761.1999999999998,562.4000000000002L760.2999999999998,561.5000000000002L758.6999999999998,559.5000000000002L757.9999999999998,558.8000000000002L757.3999999999997,558.4000000000002L756.6999999999997,558.1000000000003L754.3999999999997,557.4000000000002L751.8999999999997,556.2000000000002L750.5999999999998,555.4000000000002L745.9999999999998,549.5000000000002L742.6999999999998,542.8000000000002L740.9999999999998,540.3000000000002L740.7999999999997,539.7000000000002L740.5999999999997,539.1000000000001L740.5999999999997,538.5000000000001L740.7999999999997,537.9000000000001L741.0999999999997,537.3000000000001L741.8999999999996,536.6L742.8999999999996,535.8000000000001L743.2999999999996,535.4000000000001L743.5999999999996,534.8000000000001L743.7999999999996,534.2L743.7999999999996,533.6L743.6999999999996,533.2L743.4999999999995,532.8000000000001L743.0999999999996,532.7L742.4999999999995,532.7L741.7999999999995,532.8000000000001L741.1999999999995,532.9000000000001L740.5999999999995,532.7L740.0999999999995,532L739.6999999999995,531.8L739.3999999999995,531.8L738.3999999999995,532.4L737.6999999999995,532.4L736.8999999999995,532.1999999999999L735.8999999999995,531.4L735.1999999999995,531L734.8999999999995,530.9L734.4999999999995,531.5L734.1999999999996,531.5L733.6999999999996,530.9L731.5999999999996,527.6L731.1999999999996,527.3000000000001L730.6999999999996,527.1L730.3999999999996,526.7L730.0999999999997,526.1L729.7999999999997,525.4L729.1999999999997,524.4L729.1999999999997,524L729.3999999999997,523.7L729.8999999999997,523.5L730.0999999999998,523.4L729.9999999999998,523L729.7999999999997,522.6L729.2999999999997,521.9L726.6999999999997,519.8L726.0999999999997,519.0999999999999L725.7999999999997,518.4999999999999L725.6999999999997,518.0999999999999L725.5999999999997,516.8999999999999L725.3999999999996,516.3999999999999L724.6999999999996,515.5999999999999L724.2999999999996,514.8L722.3999999999996,511.59999999999997L722.0999999999997,511.2L721.0999999999997,510.2L720.9999999999997,509.9L721.1999999999997,509.5L721.6999999999997,509.4L721.6999999999997,509.09999999999997L720.9999999999997,508.49999999999994L720.4999999999997,507.99999999999994L720.1999999999997,507.3999999999999L719.8999999999997,506.2999999999999L721.2999999999997,503.1999999999999L740.2999999999997,469.59999999999985L740.1999999999997,467.1999999999999L739.7999999999997,465.89999999999986L731.2999999999997,453.59999999999985L727.0999999999997,444.79999999999984L726.7999999999997,444.29999999999984L716.9999999999998,439.1999999999998L705.4999999999998,435.29999999999984L703.5999999999998,434.09999999999985L698.2999999999998,428.1999999999999L701.1999999999998,422.2999999999999L706.3999999999999,414.9999999999999L709.1999999999998,412.4999999999999L711.5999999999998,411.2999999999999L713.2999999999998,411.2999999999999L726.4999999999999,415.9999999999999L746.8999999999999,419.2999999999999Z" class="sm_state sm_state_SDN876" opacity="1" stroke-opacity="1" stroke-width="1.8900000000000001" stroke-linejoin="round" transform="matrix(0.3545,0,0,0.3545,0,0)" style="-webkit-tap-highlight-color: rgba(0, 0, 0, 0); opacity: 1; cursor: pointer; stroke-opacity: 1; stroke-linejoin: round; fill-opacity: 1;" fill-opacity="1"/><path fill="#88a4bc" stroke="#ffffff" d="M724.3,514.8L721.9,514.4L720.6,513.9L717.8000000000001,513.5L713.4000000000001,513.7L711.8000000000001,513.5L711.1,513.2L707.2,510.80000000000007L706.4000000000001,510.4000000000001L705.5000000000001,510.30000000000007L704.7000000000002,510.30000000000007L703.9000000000002,510.30000000000007L702.3000000000002,511.00000000000006L700.3000000000002,512.2L696.5000000000002,515.2L691.7000000000003,520L689.9000000000003,521.3L688.4000000000003,521.5L687.0000000000003,520.6L682.0000000000003,514.5L679.7000000000004,513.2L677.2000000000004,512.9000000000001L674.7000000000004,513.5000000000001L672.6000000000004,514.8000000000001L670.7000000000004,516.6L669.2000000000004,518.9L668.1000000000004,521.1999999999999L665.1000000000004,530.0999999999999L663.8000000000004,531.6999999999999L662.0000000000005,531.6999999999999L659.1000000000005,528.6999999999999L657.9000000000004,528.4L656.4000000000004,529.1999999999999L655.4000000000004,531.1999999999999L654.8000000000004,532.9L654.3000000000004,538.3L648.8000000000004,544.3L647.3000000000004,545.3L645.8000000000004,545.3L645.0000000000005,544.3L644.6000000000005,542.4L644.8000000000005,532.1L644.5000000000006,529.9L644.0000000000006,527.4L641.1000000000006,521.3L635.9000000000005,512.6999999999999L633.5000000000006,507.79999999999995L632.0000000000006,502.99999999999994L631.7000000000006,501.29999999999995L631.6000000000006,500.09999999999997L631.8000000000006,498.9L632.2000000000006,497.4L635.1000000000006,490.79999999999995L638.9000000000005,484.09999999999997L642.3000000000005,480.2L644.2000000000005,478.4L645.5000000000005,476.59999999999997L646.3000000000004,474.59999999999997L646.6000000000004,472.4L646.3000000000004,463L646.0000000000005,460.7L645.5000000000005,459.4L645.1000000000005,458.9L644.4000000000004,458.5L640.3000000000004,456.9L639.2000000000004,456.09999999999997L638.5000000000003,454.9L638.5000000000003,453.59999999999997L639.0000000000003,452.59999999999997L640.1000000000004,452.2L641.5000000000003,452.09999999999997L642.7000000000004,452.2L643.8000000000004,452L644.5000000000005,451.5L645.1000000000005,450L645.0000000000005,448.5L644.5000000000005,446.9L643.1000000000005,443L643.2000000000005,442.3L643.8000000000005,440.8L644.2000000000005,440.3L645.1000000000005,439.90000000000003L657.9000000000004,436.1L668.4000000000004,434.6L668.8000000000004,434.70000000000005L671.6000000000004,435.30000000000007L672.0000000000003,435.30000000000007L672.5000000000003,435.20000000000005L673.4000000000003,434.50000000000006L674.1000000000004,433.90000000000003L676.7000000000004,431.8L677.7000000000004,431.1L679.2000000000004,430.5L681.8000000000004,430.2L684.1000000000004,430.2L698.3000000000004,428.2L703.6000000000004,434.09999999999997L705.5000000000003,435.29999999999995L717.0000000000003,439.19999999999993L726.8000000000003,444.29999999999995L727.1000000000003,444.79999999999995L731.3000000000003,453.59999999999997L739.8000000000003,465.9L740.2000000000003,467.2L740.3000000000003,469.59999999999997L721.3000000000003,503.2L719.9000000000003,506.3L720.2000000000003,507.40000000000003L720.5000000000002,508.00000000000006L721.0000000000002,508.50000000000006L721.7000000000003,509.1000000000001L721.7000000000003,509.4000000000001L721.2000000000003,509.5000000000001L721.0000000000002,509.9000000000001L721.1000000000003,510.2000000000001L722.1000000000003,511.2000000000001L722.4000000000002,511.6000000000001L724.3000000000002,514.8000000000001Z" class="sm_state sm_state_SDN875" opacity="1" stroke-opacity="1" stroke-width="1.8900000000000001" stroke-linejoin="round" transform="matrix(0.3545,0,0,0.3545,0,0)" style="-webkit-tap-highlight-color: rgba(0, 0, 0, 0); opacity: 1; cursor: pointer; stroke-opacity: 1; stroke-linejoin: round; fill-opacity: 1;" fill-opacity="1"/><path fill="#88a4bc" stroke="#ffffff" d="M737.1,392.1L737.2,395.6L738.9000000000001,401.1L746.9000000000001,419.3L726.5000000000001,416L713.3000000000001,411.3L711.6,411.3L709.2,412.5L706.4000000000001,415L701.2,422.3L698.3000000000001,428.2L684.1,430.2L681.8000000000001,430.2L679.2,430.5L677.7,431.1L676.7,431.8L674.1,433.90000000000003L673.4,434.50000000000006L672.5,435.20000000000005L672,435.30000000000007L671.6,435.30000000000007L668.8000000000001,434.70000000000005L668.4000000000001,434.6L657.9000000000001,436.1L645.1000000000001,439.90000000000003L644.2000000000002,440.3L643.8000000000002,440.8L643.2000000000002,442.3L643.1000000000001,443L636.4000000000001,442.6L634.2,443L633.2,443.4L631.5,443.9L630.2,443.9L625.9000000000001,442.5L624.9000000000001,442L621.4000000000001,431.4L619.7,427.7L606.9000000000001,405.5L597.8000000000001,393.4L582.9000000000001,359.79999999999995L595.5000000000001,352.09999999999997L597.8000000000001,351.59999999999997L598.8000000000001,354.49999999999994L599.8000000000001,356.09999999999997L607.7,364.7L610.3000000000001,366.9L613.3000000000001,368.29999999999995L644.6,373.4L647.5,374.4L666.2,384.79999999999995L695.6,392.69999999999993L703,396.69999999999993L708,398.19999999999993L710.4,398.49999999999994L714.3,398.3999999999999L718.4,397.5999999999999L726.1999999999999,394.5999999999999L728.3,393.3999999999999L737.0999999999999,392.0999999999999Z" class="sm_state sm_state_SDN874" opacity="1" stroke-opacity="1" stroke-width="1.8900000000000001" stroke-linejoin="round" transform="matrix(0.3545,0,0,0.3545,0,0)" style="-webkit-tap-highlight-color: rgba(0, 0, 0, 0); opacity: 1; cursor: pointer; stroke-opacity: 1; stroke-linejoin: round; fill-opacity: 1;" fill-opacity="1"/><path fill="#88a4bc" stroke="#ffffff" d="M588.1,602.3L591.2,623.0999999999999L591.4000000000001,624.0999999999999L591.8000000000001,624.8999999999999L592.6,625.1999999999998L593.5,625.3999999999999L598.8,625.8999999999999L602.1999999999999,628.0999999999999L611.4999999999999,638.3999999999999L627.0999999999999,655.9999999999999L627.3,656.3999999999999L627.5,657.3999999999999L627.7,658.0999999999999L628,664.3L627.1,674.0999999999999L627.3000000000001,680.3999999999999L628.2,684.4999999999999L632.4000000000001,692.5999999999999L632.2,694.0999999999999L631.2,695.9999999999999L617.2,707.9999999999999L603.2,719.8999999999999L602.4000000000001,720.9999999999999L598.5000000000001,730.9999999999999L594.8000000000001,736.7999999999998L593.2,738.4999999999999L586.7,746.5999999999999L573.9000000000001,759.3L561.1000000000001,772.0999999999999L556.9000000000001,773.8L544.2,774.5L537.5,774.7L536.7,774.9000000000001L535.5,775.3000000000001L534.8,776.0000000000001L534,776.5000000000001L533.2,776.2000000000002L532.2,775.5000000000001L516.5,761.2000000000002L502.5,752.2000000000002L488.5,743.2000000000002L485.8,744.8000000000002L469.90000000000003,752.6000000000001L466.70000000000005,754.6000000000001L464.90000000000003,756.0000000000001L464.8,764.7000000000002L462,769.1000000000001L457,773.9000000000001L443.3,777.0000000000001L436.2,779.6000000000001L428.9,783.5000000000001L427.7,784.5000000000001L423.2,788.0000000000001L419.3,791.8000000000001L418.1,794.1L418,796.6L418.3,798.8000000000001L419,800.3000000000001L371.6,799.9000000000001L368.70000000000005,796.6000000000001L362.6,784.0000000000001L349.6,755.9000000000001L348.5,750.9000000000001L327.6,699.1000000000001L323.8,683.1000000000001L323.8,680.3000000000002L322.8,673.4000000000002L326.2,676.2000000000002L331.5,678.4000000000002L337.8,678.4000000000002L341.5,677.5000000000002L344.6,676.5000000000002L347.8,674.6000000000003L350,672.3000000000003L352.5,669.5000000000003L356.5,665.3000000000003L360,662.4000000000003L362.5,659.9000000000003L364.3,655.7000000000003L366.90000000000003,650.9000000000003L368.70000000000005,646.5000000000003L369.40000000000003,644.2000000000004L370.6,641.7000000000004L372.8,640.4000000000004L375.3,640.4000000000004L378.40000000000003,641.3000000000004L382.8,641.7000000000004L385.6,642.6000000000004L387.8,643.9000000000003L390.3,643.9000000000003L393.7,643.6000000000004L400.59999999999997,642.3000000000004L404.4,641.0000000000005L406.29999999999995,639.7000000000005L406.59999999999997,637.8000000000005L405.9,635.9000000000005L406.59999999999997,632.7000000000005L408.79999999999995,626.6000000000005L409.99999999999994,621.5000000000005L411.8999999999999,618.6000000000005L413.7999999999999,617.3000000000005L416.2999999999999,615.7000000000005L418.3999999999999,612.5000000000005L421.2999999999999,609.3000000000004L422.7999999999999,608.4000000000004L424.9999999999999,608.0000000000005L426.89999999999986,608.7000000000005L430.9999999999999,611.9000000000005L434.9999999999999,614.8000000000005L438.7999999999999,617.7000000000005L442.7999999999999,620.2000000000005L448.6999999999999,621.5000000000005L450.2999999999999,620.6000000000005L452.0999999999999,620.2000000000005L453.4999999999999,620.3000000000005L454.6999999999999,620.7000000000005L455.7999999999999,621.1000000000005L456.8999999999999,621.4000000000004L457.99999999999994,621.3000000000004L473.99999999999994,596.7000000000004L476.09999999999997,594.9000000000004L478.4,594.0000000000005L480.7,593.7000000000005L482.9,593.6000000000005L484.7,593.8000000000005L485.59999999999997,594.0000000000006L486.2,594.3000000000005L486.59999999999997,594.6000000000005L487.2,595.2000000000005L488.3,596.6000000000005L488.7,597.3000000000005L488.9,598.0000000000006L489,599.0000000000006L488.6,605.0000000000006L488.8,605.9000000000005L489.40000000000003,606.7000000000005L490.8,607.6000000000005L492.6,608.0000000000005L508,607.4000000000004L512.4,608.0000000000005L514,608.7000000000005L515.4,609.8000000000005L520.5,617.3000000000005L522.2,619.0000000000006L524.5,620.6000000000006L526.5,621.4000000000005L528,621.8000000000005L529.6,621.8000000000005L531.2,621.6000000000005L532.7,620.9000000000004L534.1,619.7000000000004L536.5,616.8000000000004L537.2,616.2000000000004L537.8000000000001,615.7000000000004L538.9000000000001,615.2000000000004L542.4000000000001,613.9000000000004L544.3000000000001,612.9000000000004L546.3000000000001,611.5000000000005L547.8000000000001,609.9000000000004L551.0000000000001,604.1000000000005L552.4000000000001,602.4000000000004L554.0000000000001,601.1000000000005L555.9000000000001,600.4000000000004L557.4000000000001,600.4000000000004L560.5000000000001,601.1000000000005L561.9000000000001,601.1000000000005L563.2,600.9000000000004L565.1,600.2000000000004L571.8000000000001,596.0000000000003L573.6,595.6000000000004L575,595.6000000000004L576.5,596.0000000000003L588.1,602.3000000000003Z" class="sm_state sm_state_SDN882" opacity="1" stroke-opacity="1" stroke-width="1.8900000000000001" stroke-linejoin="round" transform="matrix(0.3545,0,0,0.3545,0,0)" style="-webkit-tap-highlight-color: rgba(0, 0, 0, 0); opacity: 1; cursor: pointer; stroke-opacity: 1; stroke-linejoin: round; fill-opacity: 1;" fill-opacity="1"/><path fill="#88a4bc" stroke="#ffffff" d="M582.9,359.8L597.8,393.40000000000003L606.9,405.50000000000006L619.6999999999999,427.70000000000005L621.4,431.40000000000003L624.9,442.00000000000006L605.8,450.1000000000001L605,450.7000000000001L604.4,451.4000000000001L604.4,452.6000000000001L604.6,453.7000000000001L604.8000000000001,454.5000000000001L604.7,454.8000000000001L604.5,455.2000000000001L597.7,459.8000000000001L597.2,460.5000000000001L590.9000000000001,474.4000000000001L590.3000000000001,475.1000000000001L589.9000000000001,475.6000000000001L589.4000000000001,475.9000000000001L588.0000000000001,476.6000000000001L586.2000000000002,477.30000000000007L584.0000000000001,478.4000000000001L583.5000000000001,478.80000000000007L582.6000000000001,479.6000000000001L580.4000000000001,482.9000000000001L579.1000000000001,486.6000000000001L579.0000000000001,487.1000000000001L577.9000000000001,495.2000000000001L578.0000000000001,503.6000000000001L578.9000000000001,509.00000000000006L579.8000000000001,512.3000000000001L580.8000000000001,514.7L581.2,515.9000000000001L581.7,517.0000000000001L582.1,517.5000000000001L583.3000000000001,518.4000000000001L585.4000000000001,519.6000000000001L588.0000000000001,521.6000000000001L589.3000000000001,522.4000000000001L589.7,522.8000000000001L590.4000000000001,523.8000000000001L593.9000000000001,532.1L597.8000000000001,538.5L599.3000000000001,540.3L601.0000000000001,541.9L601.5000000000001,542.6L603.0000000000001,544L603.5000000000001,544.4L604.9000000000001,545L608.2,545.9L608.5,546.1L609.5,546.7L609.9,547.2L610.1,547.8000000000001L610,548.7L608.3,553.8000000000001L608.1999999999999,554.8000000000001L608.1999999999999,555.5000000000001L608.4,556.2000000000002L609.1999999999999,558.4000000000002L609.4999999999999,559.7000000000002L609.4999999999999,560.5000000000001L609.1999999999999,561.4000000000001L608.8,562.1000000000001L608.0999999999999,563.0000000000001L607.6999999999999,563.5000000000001L607.4,563.8000000000001L602.1999999999999,565.8000000000001L592.6999999999999,572.2L586.9999999999999,577.5L585.5999999999999,579.1L585.3,579.6L585.5,582L588.1,602.3L576.5,596L575,595.6L573.6,595.6L571.8000000000001,596L565.1,600.2L563.2,600.9000000000001L561.9000000000001,601.1000000000001L560.5000000000001,601.1000000000001L557.4000000000001,600.4000000000001L555.9000000000001,600.4000000000001L554.0000000000001,601.1000000000001L552.4000000000001,602.4000000000001L551.0000000000001,604.1000000000001L547.8000000000001,609.9000000000001L546.3000000000001,611.5000000000001L544.3000000000001,612.9000000000001L542.4000000000001,613.9000000000001L538.9000000000001,615.2L537.8000000000001,615.7L537.2,616.2L536.5,616.8000000000001L534.1,619.7L532.7,620.9000000000001L531.2,621.6000000000001L529.6,621.8000000000002L528,621.8000000000002L526.5,621.4000000000002L524.5,620.6000000000003L522.2,619.0000000000002L520.5,617.3000000000002L515.4,609.8000000000002L514,608.7000000000002L512.4,608.0000000000001L508,607.4000000000001L492.6,608.0000000000001L490.8,607.6000000000001L489.40000000000003,606.7000000000002L488.8,605.9000000000002L488.6,605.0000000000002L489,599.0000000000002L488.9,598.0000000000002L488.7,597.3000000000002L488.3,596.6000000000001L487.2,595.2000000000002L486.59999999999997,594.6000000000001L486.2,594.3000000000002L485.59999999999997,594.0000000000002L484.7,593.8000000000002L482.9,593.6000000000001L480.7,593.7000000000002L478.4,594.0000000000001L476.09999999999997,594.9000000000001L473.99999999999994,596.7L457.99999999999994,621.3000000000001L456.8999999999999,621.4000000000001L455.7999999999999,621.1000000000001L454.6999999999999,620.7000000000002L453.4999999999999,620.3000000000002L452.0999999999999,620.2000000000002L450.2999999999999,620.6000000000001L448.6999999999999,621.5000000000001L442.7999999999999,620.2000000000002L438.7999999999999,617.7000000000002L434.9999999999999,614.8000000000002L430.9999999999999,611.9000000000002L426.89999999999986,608.7000000000002L424.9999999999999,608.0000000000001L422.7999999999999,608.4000000000001L421.2999999999999,609.3000000000001L418.3999999999999,612.5000000000001L416.2999999999999,615.7000000000002L413.7999999999999,617.3000000000002L411.8999999999999,618.6000000000001L409.99999999999994,621.5000000000001L408.79999999999995,626.6000000000001L406.59999999999997,632.7000000000002L405.9,635.9000000000002L406.59999999999997,637.8000000000002L406.29999999999995,639.7000000000002L404.4,641.0000000000001L400.59999999999997,642.3000000000001L393.7,643.6L390.3,643.9L387.8,643.9L385.6,642.6L382.8,641.7L378.40000000000003,641.3000000000001L375.3,640.4000000000001L372.8,640.4000000000001L370.6,641.7L369.40000000000003,644.2L368.70000000000005,646.5L366.90000000000003,650.9L364.3,655.6999999999999L362.5,659.9L360,662.4L356.5,665.3L352.5,669.5L350,672.3L347.8,674.5999999999999L344.6,676.4999999999999L341.5,677.4999999999999L337.8,678.3999999999999L331.5,678.3999999999999L326.2,676.1999999999998L322.8,673.3999999999999L322.8,658.7999999999998L320.8,648.8999999999999L317,641.5999999999999L316.8,640.1999999999999L316.40000000000003,638.1999999999999L315.70000000000005,636.8L312.70000000000005,632.0999999999999L312.50000000000006,631.4999999999999L312.40000000000003,630.8999999999999L312.40000000000003,627.8999999999999L312.70000000000005,625.5999999999999L312.80000000000007,624.8L312.70000000000005,624.0999999999999L310.50000000000006,615.6999999999999L310.40000000000003,614.3L310.50000000000006,613.5999999999999L310.70000000000005,612.8L313.90000000000003,607.4L315.6,603L315.70000000000005,602.2L315.90000000000003,601.5L315.90000000000003,600.6L315.50000000000006,593.3000000000001L316.1000000000001,584.9000000000001L316.4000000000001,584.0000000000001L318.0000000000001,580.3000000000001L327.10000000000014,568.9000000000001L328.40000000000015,566.7L329.20000000000016,564.8000000000001L330.90000000000015,562.2L331.10000000000014,561.4000000000001L331.40000000000015,556.8000000000001L331.50000000000017,555.8000000000001L331.70000000000016,555.2L332.60000000000014,554.4000000000001L338.60000000000014,547.2L339.3000000000001,546.1L339.5000000000001,545.6L340.3000000000001,542.6L340.5000000000001,540.4L339.8000000000001,538L336.0000000000001,531.8L335.7000000000001,530.9L335.7000000000001,530.1999999999999L338.2000000000001,516.1999999999999L329.3000000000001,490.8999999999999L323.0000000000001,470.49999999999994L320.4000000000001,465.49999999999994L318.1000000000001,463.8999999999999L317.50000000000006,463.2999999999999L317.20000000000005,462.4999999999999L304.50000000000006,353.0999999999999L305.00000000000006,351.9999999999999L305.70000000000005,351.4999999999999L337.40000000000003,351.2999999999999L338.90000000000003,351.0999999999999L550.8000000000001,358.2999999999999L571.4000000000001,356.3999999999999L574.5000000000001,356.8999999999999L582.9000000000001,359.7999999999999Z" class="sm_state sm_state_SDN883" opacity="1" stroke-opacity="1" stroke-width="1.8900000000000001" stroke-linejoin="round" transform="matrix(0.3545,0,0,0.3545,0,0)" style="-webkit-tap-highlight-color: rgba(0, 0, 0, 0); opacity: 1; cursor: pointer; stroke-opacity: 1; stroke-linejoin: round; fill-opacity: 1;" fill-opacity="1"/><path fill="#88a4bc" stroke="#ffffff" d="M643.1,443L644.5,446.9L645,448.5L645.1,450L644.5,451.5L643.8,452L642.6999999999999,452.2L641.4999999999999,452.09999999999997L640.0999999999999,452.2L638.9999999999999,452.59999999999997L638.4999999999999,453.59999999999997L638.4999999999999,454.9L639.1999999999999,456.09999999999997L640.3,456.9L644.4,458.5L645.1,458.9L645.5,459.4L646,460.7L646.3,463L646.5999999999999,472.4L646.3,474.59999999999997L645.5,476.59999999999997L644.2,478.4L642.3000000000001,480.2L638.9000000000001,484.09999999999997L635.1000000000001,490.79999999999995L632.2000000000002,497.4L631.8000000000002,498.9L631.6000000000001,500.09999999999997L631.7000000000002,501.29999999999995L632.0000000000001,502.99999999999994L633.5000000000001,507.79999999999995L635.9000000000001,512.6999999999999L641.1000000000001,521.3L644.0000000000001,527.4L644.5000000000001,529.9L644.8000000000001,532.1L644.6,542.4L645,544.3L645.8,545.3L647.3,545.3L648.8,544.3L654.3,538.3L656.4,540.1999999999999L657.1999999999999,541.1999999999999L657.9999999999999,542.5999999999999L658.4999999999999,544.1999999999999L658.8999999999999,546.4L658.9999999999999,556.1L659.6999999999999,561.6L660.6999999999999,565L664.9999999999999,573.6L671.1999999999999,582.2L671.9,584.2L671.9,586.1L670.6,591.1L670.1,594.3000000000001L670.5,598.0000000000001L678.4,625.6000000000001L650.1,625.2000000000002L649.9,625.5000000000001L649.9,625.8000000000001L650,626.5000000000001L650,627.3000000000001L649.7,628.8000000000001L649.7,629.5000000000001L649.7,630.3000000000001L650.1,633.1L650.9,635.3000000000001L651,636.0000000000001L651,636.7000000000002L650.9,638.2000000000002L611.5,638.4000000000002L602.2,628.1000000000003L598.8000000000001,625.9000000000002L593.5000000000001,625.4000000000002L592.6000000000001,625.2000000000002L591.8000000000002,624.9000000000002L591.4000000000002,624.1000000000003L591.2000000000002,623.1000000000003L588.1000000000001,602.3000000000003L585.5000000000001,582.0000000000003L585.3000000000001,579.6000000000004L585.6,579.1000000000004L587,577.5000000000003L592.7,572.2000000000004L602.2,565.8000000000004L607.4000000000001,563.8000000000004L607.7,563.5000000000005L608.1,563.0000000000005L608.8000000000001,562.1000000000005L609.2,561.4000000000004L609.5,560.5000000000005L609.5,559.7000000000005L609.2,558.4000000000005L608.4000000000001,556.2000000000005L608.2,555.5000000000005L608.2,554.8000000000004L608.3000000000001,553.8000000000004L610.0000000000001,548.7000000000004L610.1000000000001,547.8000000000004L609.9000000000001,547.2000000000004L609.5000000000001,546.7000000000004L608.5000000000001,546.1000000000004L608.2000000000002,545.9000000000003L604.9000000000002,545.0000000000003L603.5000000000002,544.4000000000003L603.0000000000002,544.0000000000003L601.5000000000002,542.6000000000004L601.0000000000002,541.9000000000003L599.3000000000002,540.3000000000003L597.8000000000002,538.5000000000003L593.9000000000002,532.1000000000004L590.4000000000002,523.8000000000004L589.7000000000002,522.8000000000004L589.3000000000002,522.4000000000004L588.0000000000002,521.6000000000005L585.4000000000002,519.6000000000005L583.3000000000002,518.4000000000004L582.1000000000001,517.5000000000005L581.7000000000002,517.0000000000005L581.2000000000002,515.9000000000004L580.8000000000002,514.7000000000004L579.8000000000002,512.3000000000004L578.9000000000002,509.0000000000004L578.0000000000002,503.6000000000004L577.9000000000002,495.20000000000044L579.0000000000002,487.1000000000004L579.1000000000003,486.6000000000004L580.4000000000002,482.90000000000043L582.6000000000003,479.6000000000004L583.5000000000002,478.8000000000004L584.0000000000002,478.40000000000043L586.2000000000003,477.3000000000004L588.0000000000002,476.6000000000004L589.4000000000002,475.90000000000043L589.9000000000002,475.6000000000004L590.3000000000002,475.1000000000004L590.9000000000002,474.40000000000043L597.2000000000002,460.50000000000045L597.7000000000002,459.80000000000047L604.5000000000001,455.20000000000044L604.7000000000002,454.80000000000047L604.8000000000002,454.50000000000045L604.6000000000001,453.70000000000044L604.4000000000001,452.6000000000004L604.4000000000001,451.40000000000043L605.0000000000001,450.70000000000044L605.8000000000001,450.1000000000004L624.9000000000001,442.0000000000004L625.9000000000001,442.5000000000004L630.2,443.9000000000004L631.5,443.9000000000004L633.2,443.4000000000004L634.2,443.0000000000004L636.4000000000001,442.6000000000004L643.1000000000001,443.0000000000004Z" class="sm_state sm_state_SDN879" opacity="1" stroke-opacity="1" stroke-width="1.8900000000000001" stroke-linejoin="round" transform="matrix(0.3545,0,0,0.3545,0,0)" style="-webkit-tap-highlight-color: rgba(0, 0, 0, 0); opacity: 1; cursor: pointer; stroke-opacity: 1; stroke-linejoin: round; fill-opacity: 1;" fill-opacity="1"/><path fill="#88a4bc" stroke="#ffffff" d="M637.7,15.9L616.5,211.20000000000002L616.6,211.9L616.9,212.20000000000002L641.1999999999999,225.8L641.4,226.10000000000002L641.5,226.40000000000003L640.1,252.30000000000004L640.2,252.70000000000005L646.2,269.20000000000005L646.1,272.20000000000005L647.3000000000001,277.20000000000005L640.8000000000001,289.50000000000006L597.8000000000001,351.6000000000001L595.5000000000001,352.1000000000001L582.9000000000001,359.80000000000007L574.5000000000001,356.9000000000001L571.4000000000001,356.4000000000001L550.8000000000001,358.30000000000007L338.9000000000001,351.1000000000001L338.1000000000001,143.00000000000009L190.60000000000008,143.00000000000009L189.4000000000001,142.4000000000001L189.4000000000001,123.3000000000001L189.50000000000009,111.3000000000001L189.50000000000009,95.40000000000009L189.50000000000009,87.50000000000009L189.50000000000009,71.60000000000008L189.50000000000009,55.70000000000008L189.50000000000009,31.800000000000082L189.50000000000009,23.900000000000084L189.50000000000009,15.900000000000084L195.3000000000001,15.900000000000084L218.4000000000001,15.900000000000084L224.2000000000001,15.900000000000084L241.5000000000001,15.900000000000084L253.1000000000001,15.900000000000084L270.5000000000001,15.900000000000084L287.8000000000001,15.900000000000084L299.40000000000015,15.900000000000084L322.50000000000017,15.900000000000084L328.3000000000002,15.900000000000084L357.20000000000016,15.900000000000084L368.8000000000002,15.900000000000084L386.1000000000002,15.900000000000084L415.00000000000017,15.900000000000084L426.6000000000002,15.900000000000084L449.7000000000002,15.900000000000084L455.5000000000002,15.900000000000084L472.9000000000002,15.900000000000084L484.4000000000002,15.900000000000084L507.6000000000002,15.900000000000084L513.4000000000002,15.900000000000084L542.3000000000002,15.900000000000084L553.9000000000002,15.900000000000084L561.9000000000002,15.900000000000084L562.7000000000002,15.500000000000083L568.5000000000001,3.5000000000000835L570.0000000000001,1.8000000000000835L571.2000000000002,1.2000000000000837L572.3000000000002,1.0000000000000837L573.4000000000002,1.2000000000000837L574.5000000000002,1.7000000000000837L575.8000000000002,3.0000000000000835L576.4000000000002,4.5000000000000835L576.3000000000002,6.100000000000083L573.0000000000002,15.900000000000084L578.2000000000003,15.900000000000084L637.7000000000003,15.900000000000084Z" class="sm_state sm_state_SDN878" opacity="1" stroke-opacity="1" stroke-width="1.8900000000000001" stroke-linejoin="round" transform="matrix(0.3545,0,0,0.3545,0,0)" style="-webkit-tap-highlight-color: rgba(0, 0, 0, 0); opacity: 1; cursor: pointer; stroke-opacity: 1; stroke-linejoin: round; fill-opacity: 1;" fill-opacity="1"/><path fill="#88a4bc" stroke="#ffffff" d="M919.4,95.4L918.8,95.4L918.1999999999999,94L918.1999999999999,92L918.5999999999999,90L919.4999999999999,88.7L920.2999999999998,89.3L920.4999999999999,90.1L919.7999999999998,94.39999999999999L919.3999999999999,95.39999999999999ZM902.1,327.3L847.8000000000001,331.8L846.7,331.7L845,331.2L823.8,320.09999999999997L794.5,300.29999999999995L792.3,298.09999999999997L791.3,296.79999999999995L785.5,287.69999999999993L777.8,272.49999999999994L776.6999999999999,270.79999999999995L774.5999999999999,268.4L767.3999999999999,261.59999999999997L753.6999999999998,253.39999999999998L742.5999999999998,248.59999999999997L733.8999999999997,246.09999999999997L733.0999999999998,245.59999999999997L732.4999999999998,244.69999999999996L704.3999999999997,176.69999999999996L704.2999999999997,175.89999999999995L704.4999999999998,174.89999999999995L706.3999999999997,170.49999999999994L707.0999999999998,167.59999999999994L707.3999999999997,165.99999999999994L707.3999999999997,163.09999999999994L706.3999999999997,152.79999999999993L703.4999999999998,143.19999999999993L703.0999999999998,139.69999999999993L703.1999999999998,134.79999999999993L704.2999999999998,128.19999999999993L705.5999999999998,124.59999999999994L706.4999999999998,122.89999999999993L706.5999999999998,122.39999999999993L705.9999999999998,121.49999999999993L705.8999999999997,121.19999999999993L705.8999999999997,120.49999999999993L705.8999999999997,116.79999999999993L706.2999999999997,113.99999999999993L706.1999999999997,112.89999999999993L705.8999999999997,111.49999999999993L705.0999999999998,109.39999999999993L704.0999999999998,107.09999999999994L703.3999999999997,105.99999999999994L702.2999999999997,103.69999999999995L701.9999999999998,103.19999999999995L700.9999999999998,101.99999999999994L699.7999999999997,99.79999999999994L698.5999999999997,96.39999999999993L698.0999999999997,95.59999999999994L697.4999999999997,95.29999999999994L697.1999999999997,95.19999999999995L694.4999999999997,94.59999999999995L693.7999999999996,94.39999999999995L693.1999999999996,94.09999999999995L692.6999999999996,93.79999999999995L691.6999999999996,92.99999999999996L691.1999999999996,92.59999999999995L687.5999999999996,87.59999999999995L686.8999999999995,86.89999999999995L683.6999999999995,84.89999999999995L682.9999999999994,84.29999999999995L682.1999999999995,82.99999999999996L681.9999999999994,82.29999999999995L681.9999999999994,81.79999999999995L682.0999999999995,80.49999999999996L682.1999999999995,79.69999999999996L683.1999999999995,76.49999999999996L683.5999999999995,75.09999999999995L683.5999999999995,72.99999999999996L683.1999999999995,68.49999999999996L683.2999999999995,67.99999999999996L683.4999999999995,67.49999999999996L685.4999999999995,64.99999999999996L685.7999999999995,64.49999999999996L686.1999999999995,63.799999999999955L686.3999999999995,63.19999999999995L686.7999999999995,60.899999999999956L686.8999999999995,60.09999999999996L686.7999999999995,59.29999999999996L686.5999999999995,58.19999999999996L686.1999999999995,56.49999999999996L686.1999999999995,53.69999999999996L686.0999999999995,52.99999999999996L685.5999999999995,51.69999999999996L685.2999999999995,51.19999999999996L684.8999999999995,50.69999999999996L684.0999999999996,50.09999999999996L683.0999999999996,48.99999999999996L682.1999999999996,47.799999999999955L698.9999999999995,34.09999999999995L675.4999999999995,15.899999999999952L689.2999999999995,15.899999999999952L744.5999999999995,15.899999999999952L772.2999999999995,15.899999999999952L813.6999999999995,15.899999999999952L827.5999999999995,15.899999999999952L855.1999999999995,15.899999999999952L882.8999999999995,15.799999999999953L896.7999999999995,15.799999999999953L896.5999999999995,16.799999999999955L896.3999999999994,17.099999999999955L896.1999999999994,17.199999999999957L895.1999999999994,17.399999999999956L894.1999999999994,17.699999999999957L895.5999999999993,18.799999999999958L896.1999999999994,19.699999999999957L896.1999999999994,27.399999999999956L897.5999999999993,36.19999999999996L896.9999999999993,37.99999999999996L897.8999999999993,38.59999999999996L898.0999999999993,39.29999999999996L898.0999999999993,40.09999999999996L898.4999999999993,40.79999999999996L899.0999999999993,41.499999999999964L899.5999999999993,42.099999999999966L902.6999999999994,49.79999999999997L910.3999999999994,61.79999999999997L915.4999999999994,66.59999999999997L921.7999999999994,74.69999999999996L922.2999999999994,75.79999999999995L922.1999999999994,77.09999999999995L921.7999999999994,78.19999999999995L920.9999999999994,78.69999999999995L919.8999999999994,78.19999999999995L918.6999999999994,79.09999999999995L917.5999999999993,78.19999999999995L915.9999999999993,75.39999999999995L915.5999999999993,74.79999999999995L915.0999999999993,73.99999999999996L914.8999999999993,73.29999999999995L915.3999999999993,72.99999999999996L916.0999999999993,73.19999999999996L916.5999999999993,73.69999999999996L916.7999999999994,74.39999999999996L917.1999999999994,74.89999999999996L918.4999999999993,75.99999999999996L919.3999999999993,76.29999999999995L919.8999999999993,75.99999999999996L919.6999999999992,75.49999999999996L918.2999999999993,73.79999999999995L917.2999999999993,71.29999999999995L916.6999999999992,70.49999999999996L915.7999999999993,70.79999999999995L914.0999999999992,69.49999999999996L913.5999999999992,70.19999999999996L913.1999999999992,70.09999999999997L912.7999999999993,69.39999999999996L912.4999999999993,68.59999999999997L912.6999999999994,67.79999999999997L913.0999999999993,67.09999999999997L913.1999999999994,66.29999999999997L912.4999999999993,65.49999999999997L910.8999999999993,65.19999999999997L909.8999999999993,66.29999999999997L909.4999999999993,67.99999999999997L909.6999999999994,69.49999999999997L909.9999999999993,69.89999999999998L910.6999999999994,69.89999999999998L910.8999999999994,70.29999999999998L910.4999999999994,71.59999999999998L910.6999999999995,73.29999999999998L910.6999999999995,73.99999999999999L910.4999999999994,74.69999999999999L909.8999999999994,75.29999999999998L909.2999999999994,75.49999999999999L908.7999999999994,75.79999999999998L908.7999999999994,76.89999999999998L909.0999999999993,77.49999999999997L910.8999999999993,79.49999999999997L912.3999999999993,83.29999999999997L913.1999999999992,87.19999999999997L913.6999999999992,95.59999999999998L914.5999999999992,99.59999999999998L917.1999999999992,107.19999999999997L917.3999999999993,111.29999999999997L917.1999999999992,112.29999999999997L916.8999999999993,113.29999999999997L916.2999999999993,113.89999999999996L914.4999999999993,113.59999999999997L914.2999999999993,114.49999999999997L914.4999999999993,116.29999999999997L914.0999999999993,120.89999999999996L914.4999999999993,123.39999999999996L914.4999999999993,124.39999999999996L915.8999999999993,128.09999999999997L916.3999999999993,130.29999999999995L916.6999999999992,132.39999999999995L917.0999999999992,135.39999999999995L916.0999999999992,137.79999999999995L916.1999999999992,138.19999999999996L915.9999999999992,138.89999999999995L915.1999999999992,139.79999999999995L914.9999999999992,140.39999999999995L914.8999999999992,142.09999999999994L915.2999999999992,144.29999999999993L919.0999999999991,154.29999999999993L919.4999999999991,156.49999999999991L919.4999999999991,160.5999999999999L919.299999999999,161.6999999999999L918.9999999999991,162.3999999999999L917.9999999999991,163.7999999999999L917.8999999999991,164.7999999999999L918.299999999999,168.5999999999999L918.199999999999,169.7999999999999L918.299999999999,170.2999999999999L918.4999999999991,170.8999999999999L919.4999999999991,172.4999999999999L920.6999999999991,176.09999999999988L922.9999999999991,189.4999999999999L923.4999999999991,195.9999999999999L923.6999999999991,196.7999999999999L924.1999999999991,197.1999999999999L924.7999999999992,197.49999999999991L925.0999999999991,197.99999999999991L925.0999999999991,198.39999999999992L924.7999999999992,199.19999999999993L924.7999999999992,199.69999999999993L926.1999999999991,201.69999999999993L926.9999999999991,204.79999999999993L928.9999999999991,211.49999999999991L929.4999999999991,214.79999999999993L930.299999999999,215.89999999999992L931.599999999999,218.29999999999993L932.899999999999,220.69999999999993L934.899999999999,222.49999999999994L935.1999999999989,223.19999999999993L935.7999999999989,223.89999999999992L936.399999999999,224.29999999999993L937.1999999999989,224.09999999999994L937.7999999999989,223.69999999999993L938.2999999999989,223.79999999999993L941.7999999999989,223.19999999999993L943.7999999999989,222.29999999999993L944.0999999999989,223.49999999999991L945.3999999999988,224.1999999999999L946.4999999999989,224.3999999999999L947.6999999999989,224.2999999999999L948.0999999999989,225.0999999999999L948.1999999999989,226.0999999999999L949.1999999999989,226.99999999999991L948.6999999999989,229.39999999999992L949.6999999999989,228.89999999999992L950.2999999999989,228.69999999999993L950.999999999999,229.19999999999993L951.999999999999,230.19999999999993L958.699999999999,232.09999999999994L961.199999999999,234.49999999999994L962.799999999999,237.29999999999995L965.3999999999991,239.89999999999995L966.9999999999991,240.99999999999994L969.5999999999991,241.99999999999994L970.3999999999991,242.89999999999995L969.5999999999991,243.99999999999994L967.9999999999991,244.79999999999995L967.5999999999991,246.99999999999994L969.2999999999992,250.49999999999994L972.0999999999991,253.19999999999993L975.2999999999992,253.89999999999992L977.6999999999991,253.49999999999991L977.9999999999991,251.1999999999999L979.1999999999991,250.7999999999999L981.2999999999992,249.5999999999999L981.6999999999991,250.2999999999999L981.1999999999991,250.7999999999999L980.2999999999992,251.1999999999999L979.6999999999991,251.6999999999999L979.5999999999991,252.1999999999999L979.6999999999991,252.8999999999999L979.4999999999991,253.59999999999988L978.799999999999,254.29999999999987L977.8999999999991,254.59999999999988L977.0999999999991,254.4999999999999L976.4999999999991,254.59999999999988L975.9999999999991,255.19999999999987L976.799999999999,255.09999999999988L978.8999999999991,254.79999999999987L979.699999999999,254.89999999999986L980.199999999999,255.19999999999987L980.699999999999,255.69999999999987L981.299999999999,255.9999999999999L982.099999999999,256.1999999999999L983.799999999999,256.39999999999986L984.599999999999,256.6999999999999L985.499999999999,256.89999999999986L986.099999999999,256.59999999999985L986.199999999999,256.09999999999985L985.3999999999991,255.59999999999985L986.3999999999991,254.69999999999985L987.4999999999991,255.99999999999986L989.4999999999991,258.9999999999999L988.8999999999991,259.89999999999986L989.8999999999991,260.4999999999999L991.3999999999991,260.5999999999999L992.299999999999,259.8999999999999L992.9999999999991,260.8999999999999L993.1999999999991,263.3999999999999L993.5999999999991,264.19999999999993L994.6999999999991,264.3999999999999L995.2999999999992,263.3999999999999L995.1999999999991,261.99999999999994L994.3999999999992,260.69999999999993L995.3999999999992,261.3999999999999L997.7999999999992,263.99999999999994L998.1999999999991,264.8999999999999L998.1999999999991,265.8999999999999L998.3999999999992,266.49999999999994L998.9999999999992,267.8999999999999L998.8999999999992,268.49999999999994L990.3999999999992,275.59999999999997L988.7999999999992,277.99999999999994L985.1999999999991,287.59999999999997L983.4999999999991,290.29999999999995L982.299999999999,291.19999999999993L979.3999999999991,292.69999999999993L978.3999999999991,293.5999999999999L978.0999999999991,294.7999999999999L978.0999999999991,296.1999999999999L977.9999999999991,297.39999999999986L976.9999999999991,298.39999999999986L975.5999999999991,298.59999999999985L974.4999999999991,297.99999999999983L973.5999999999991,296.99999999999983L972.6999999999991,296.3999999999998L970.5999999999991,297.0999999999998L970.1999999999991,297.1999999999998L969.8999999999992,297.6999999999998L970.1999999999991,298.49999999999983L970.1999999999991,299.1999999999998L969.4999999999991,300.3999999999998L968.5999999999991,301.1999999999998L967.6999999999991,301.29999999999984L967.2999999999992,299.89999999999986L967.3999999999992,298.6999999999999L967.2999999999992,297.59999999999985L966.7999999999992,296.99999999999983L965.3999999999992,296.99999999999983L963.9999999999992,297.49999999999983L959.9999999999992,300.29999999999984L958.0999999999992,302.6999999999998L956.8999999999992,303.5999999999998L955.4999999999992,303.8999999999998L954.1999999999992,303.49999999999983L952.3999999999993,301.79999999999984L951.1999999999992,301.39999999999986L949.0999999999992,302.4999999999999L946.4999999999992,307.1999999999999L944.0999999999992,308.4999999999999L941.6999999999992,308.7999999999999L933.7999999999993,311.2999999999999L933.1999999999992,311.6999999999999L932.9999999999992,312.39999999999986L933.6999999999992,315.29999999999984L933.6999999999992,316.39999999999986L933.4999999999992,318.9999999999999L933.0999999999992,320.2999999999999L931.7999999999993,322.5999999999999L931.4999999999993,323.9999999999999L930.9999999999993,325.1999999999999L927.6999999999994,329.2999999999999L922.0999999999993,327.6999999999999L920.3999999999993,327.7999999999999L917.5999999999993,329.5999999999999L915.7999999999994,329.69999999999993L914.8999999999994,329.5999999999999L911.6999999999994,330.0999999999999L911.0999999999993,329.9999999999999L908.7999999999994,328.5999999999999L908.1999999999994,328.3999999999999L906.5999999999993,328.0999999999999L905.5999999999993,327.69999999999993L904.6999999999994,326.99999999999994L903.6999999999994,326.59999999999997L902.4999999999993,326.79999999999995L902.0999999999993,327.29999999999995Z" class="sm_state sm_state_SDN149" opacity="1" stroke-opacity="1" stroke-width="1.8900000000000001" stroke-linejoin="round" transform="matrix(0.3545,0,0,0.3545,0,0)" style="-webkit-tap-highlight-color: rgba(0, 0, 0, 0); opacity: 1; cursor: pointer; stroke-opacity: 1; stroke-linejoin: round; fill-opacity: 1;" fill-opacity="1"/><path fill="#88a4bc" stroke="#ffffff" d="M793.7,646.2L792.4000000000001,646.7L790.1000000000001,648.2L789.2000000000002,649.4000000000001L788.4000000000002,650.8000000000001L787.7000000000002,652.3000000000001L787.3000000000002,653.7L787.3000000000002,654.9000000000001L787.7000000000002,657.2L787.6000000000001,659.7L788.0000000000001,661L789.3000000000001,663.4L789.4000000000001,664.6L789.2,665.8000000000001L781.7,682.4000000000001L781.5,683.7L782.1,685.4000000000001L783.1,686.5000000000001L783.9,687.8000000000001L783.6999999999999,689.7L779.6999999999999,701.2L779.6999999999999,701.9000000000001L780.3,702.7L782,704L782.4,704.9L781.9,707L780.9,708.4L777.6999999999999,710.9L776.5999999999999,711.9L776.3999999999999,712.6L776.3999999999999,713.4L775.9999999999999,714.5L775.1999999999999,715.5L774.5999999999999,715.5L773.8999999999999,715.3L772.8999999999999,715.4L772.0999999999999,716.1L771.3,717.9L770.9,718.4L770.1999999999999,718.1999999999999L770.1999999999999,717.3L770.4,715.5L770,714.6L769.2,713.9L767.5,712.6999999999999L760.3,706.4L759.5999999999999,706.1L758.5999999999999,706.5L751.3999999999999,711.4L750.3999999999999,712.3L749.3999999999999,713.5999999999999L747.0999999999999,718.0999999999999L741.9999999999999,725.3999999999999L741.5999999999999,727.4999999999999L741.8,729.9999999999999L744.6999999999999,743.2999999999998L744.8,745.9999999999999L744.3,748.5999999999999L744.0999999999999,748.8999999999999L743.4999999999999,749.4999999999999L743.3999999999999,749.8999999999999L743.2999999999998,750.4999999999999L743.4999999999999,751.9999999999999L743.4999999999999,752.6999999999999L742.0999999999999,754.6999999999999L738.5999999999999,757.9999999999999L731.3,778.8999999999999L729.4,787.7999999999998L729.6,792.4999999999999L719.5,792.3999999999999L719.2,792.1999999999998L718.8000000000001,791.4999999999998L718.4000000000001,789.7999999999997L718.2,787.0999999999997L718.5,782.4999999999997L719.8,776.9999999999997L723.5999999999999,769.2999999999996L723.8,768.6999999999996L723.8,767.8999999999996L723.5,766.4999999999997L723,765.2999999999996L722.8,763.4999999999997L723.5,759.4999999999997L723.5,758.2999999999996L723.4,756.6999999999996L723.1,755.6999999999996L720.5,748.9999999999995L719.6,747.8999999999995L706.7,737.2999999999995L693.9000000000001,726.6999999999995L689.2,720.8999999999995L688.7,720.4999999999995L688,720.1999999999996L675,715.3999999999996L674.3,714.8999999999996L674.4,714.0999999999997L674.8,713.1999999999997L676.4,710.3999999999997L676.6,709.6999999999997L676.8000000000001,708.5999999999997L673.9000000000001,686.0999999999997L670.9000000000001,663.5999999999997L670.9000000000001,662.6999999999997L671.4000000000001,661.7999999999997L672.2,660.7999999999997L672.9000000000001,659.7999999999997L673.7,658.0999999999997L673.9000000000001,657.3999999999996L674.7,649.3999999999996L674.6,642.2999999999996L678.1,630.5999999999996L678.4,625.5999999999996L680.1999999999999,624.1999999999996L681.1999999999999,623.6999999999996L682.4,623.0999999999996L683.6999999999999,622.7999999999996L684.9999999999999,622.5999999999996L686.6999999999999,622.7999999999996L693.4,624.4999999999997L695.1999999999999,624.5999999999997L696.1999999999999,624.1999999999997L739.3,597.2999999999997L747,593.8999999999997L749.1,593.6999999999997L751.1,594.1999999999997L753.4,595.3999999999997L755.5,597.2999999999997L758.3,600.2999999999997L771.4,620.8999999999997L778.6999999999999,629.7999999999997L785.4,636.3999999999997L791,640.6999999999997L791.5,641.2999999999997L792.7,643.2999999999997L793.7,646.1999999999997Z" class="sm_state sm_state_SDN148" opacity="1" stroke-opacity="1" stroke-width="1.8900000000000001" stroke-linejoin="round" transform="matrix(0.3545,0,0,0.3545,0,0)" style="-webkit-tap-highlight-color: rgba(0, 0, 0, 0); opacity: 1; cursor: pointer; stroke-opacity: 1; stroke-linejoin: round; fill-opacity: 1;" fill-opacity="1"/><path fill="#88a4bc" stroke="#ffffff" d="M320.8,648.9L322.8,658.8L322.8,673.4L323.8,680.3L323.8,683.0999999999999L327.6,699.0999999999999L348.5,750.8999999999999L349.6,755.8999999999999L362.6,783.9999999999999L362,784.1999999999999L361,784.4L355.2,784.6999999999999L347.59999999999997,783.5999999999999L347.2,783.5999999999999L346,783.8999999999999L345.7,783.9999999999999L340.8,783.3999999999999L332.3,783.3999999999999L329.6,782.8999999999999L314.20000000000005,783.2999999999998L291.30000000000007,791.0999999999998L290.6000000000001,791.1999999999998L287.2000000000001,790.8999999999999L285.7000000000001,790.1999999999998L283.1000000000001,788.4999999999998L271.9000000000001,775.2999999999997L260.7000000000001,761.9999999999998L256.1000000000001,760.2999999999997L255.30000000000007,759.3999999999997L254.60000000000008,758.4999999999998L251.00000000000009,752.5999999999998L250.70000000000007,752.0999999999998L249.90000000000006,751.4999999999998L248.30000000000007,751.0999999999998L247.40000000000006,750.6999999999998L245.20000000000007,749.3999999999999L244.80000000000007,748.9999999999999L244.40000000000006,748.5999999999999L244.10000000000005,747.9999999999999L243.80000000000004,738.5999999999999L243.60000000000005,737.9999999999999L243.30000000000004,737.4999999999999L240.70000000000005,734.2999999999998L240.50000000000006,734.0999999999998L240.70000000000005,727.5999999999998L235.30000000000004,710.8999999999997L226.50000000000003,688.0999999999998L216.70000000000002,679.6999999999998L201.9,663.4999999999998L201.4,622.1999999999998L207.4,613.7999999999998L208.5,596.9999999999999L205.1,573.4999999999999L207.79999999999998,573.7999999999998L210.39999999999998,574.2999999999998L212.39999999999998,575.1999999999998L213.99999999999997,576.1999999999998L225.19999999999996,586.4999999999998L233.19999999999996,591.2999999999997L236.09999999999997,592.6999999999997L249.09999999999997,603.2999999999997L250.09999999999997,604.3999999999997L250.69999999999996,605.5999999999998L250.89999999999995,606.7999999999998L250.19999999999996,607.6999999999998L248.99999999999997,608.4999999999998L243.69999999999996,609.9999999999998L242.49999999999997,610.4999999999998L241.89999999999998,610.9999999999998L241.59999999999997,611.4999999999998L241.29999999999995,612.5999999999998L241.99999999999994,613.7999999999998L243.59999999999994,615.8999999999999L247.39999999999995,618.9999999999999L252.39999999999995,624.0999999999999L258.29999999999995,633.3999999999999L261.29999999999995,636.1999999999998L263.49999999999994,637.2999999999998L265.59999999999997,637.3999999999999L267.49999999999994,637.0999999999999L269.49999999999994,636.8999999999999L271.99999999999994,637.1999999999998L275.3999999999999,638.3999999999999L277.3999999999999,639.5999999999999L278.5999999999999,640.5999999999999L281.19999999999993,643.3999999999999L284.19999999999993,645.6999999999998L286.99999999999994,646.8999999999999L289.19999999999993,647.5999999999999L312.49999999999994,647.1999999999999L320.79999999999995,648.9Z" class="sm_state sm_state_SDN5857" opacity="1" stroke-opacity="1" stroke-width="1.8900000000000001" stroke-linejoin="round" transform="matrix(0.3545,0,0,0.3545,0,0)" style="-webkit-tap-highlight-color: rgba(0, 0, 0, 0); opacity: 1; cursor: pointer; stroke-opacity: 1; stroke-linejoin: round; fill-opacity: 1;" fill-opacity="1"/><path fill="#88a4bc" stroke="#ffffff" d="M205.1,573.5L208.5,597L207.4,613.8L201.4,622.1999999999999L201.9,663.4999999999999L216.70000000000002,679.6999999999999L226.50000000000003,688.0999999999999L235.30000000000004,710.8999999999999L240.70000000000005,727.5999999999999L240.50000000000006,734.0999999999999L239.80000000000007,734.1999999999999L237.20000000000007,734.9L235.90000000000006,735.5L234.90000000000006,735.7L232.50000000000006,735.6L231.30000000000007,735.9L229.90000000000006,736.1999999999999L228.00000000000006,736.1999999999999L227.60000000000005,736.1999999999999L225.10000000000005,736.9L220.70000000000005,738.4L219.80000000000004,738.6999999999999L219.10000000000005,738.8L216.70000000000005,738.6999999999999L216.00000000000006,738.8L215.30000000000007,738.9L214.40000000000006,739.1999999999999L213.90000000000006,739.4L213.30000000000007,739.6L211.50000000000006,739.8000000000001L211.20000000000005,739.9000000000001L210.10000000000005,740.4000000000001L209.40000000000006,740.5000000000001L208.70000000000007,740.4000000000001L208.40000000000006,740.4000000000001L207.50000000000006,740.7L207.20000000000005,740.7L206.50000000000006,740.5L205.50000000000006,740.1L204.80000000000007,740L204.00000000000006,740.2L203.50000000000006,740.4000000000001L203.10000000000005,740.4000000000001L202.00000000000006,740.4000000000001L200.60000000000005,740.9000000000001L199.90000000000006,741.0000000000001L198.40000000000006,740.9000000000001L197.80000000000007,741.0000000000001L196.90000000000006,741.4000000000001L195.60000000000005,741.8000000000001L195.20000000000005,742.2L194.60000000000005,742.9000000000001L191.60000000000005,749.4000000000001L191.50000000000006,750.0000000000001L191.40000000000006,750.5000000000001L191.60000000000005,751.5000000000001L192.10000000000005,752.6000000000001L192.30000000000004,753.3000000000002L192.30000000000004,754.0000000000002L192.20000000000005,754.3000000000002L191.60000000000005,756.1000000000001L190.00000000000006,759.4000000000001L189.70000000000005,760.4000000000001L189.20000000000005,761.5000000000001L188.70000000000005,762.2000000000002L187.90000000000003,763.0000000000001L186.30000000000004,765.3000000000001L185.50000000000003,766.1L183.40000000000003,767.4L181.40000000000003,769.1L180.40000000000003,769.6L178.90000000000003,769.9L178.50000000000003,770.5L178.30000000000004,771.7L178.40000000000003,787.8000000000001L178.30000000000004,788.5000000000001L177.80000000000004,789.9000000000001L174.20000000000005,794.0000000000001L172.50000000000006,795.6000000000001L172.00000000000006,796.3000000000002L171.60000000000005,797.3000000000002L170.40000000000006,808.9000000000002L170.20000000000007,809.8000000000002L164.80000000000007,818.9000000000002L164.40000000000006,819.8000000000002L164.40000000000006,820.2000000000002L164.40000000000006,826.7000000000002L164.00000000000006,827.1000000000001L163.40000000000006,827.4000000000001L160.50000000000006,828.4000000000001L155.10000000000005,828.9000000000001L153.80000000000004,829.2L147.30000000000004,833.3000000000001L145.50000000000003,834.2L142.00000000000003,836.8000000000001L141.70000000000002,837.3000000000001L141.60000000000002,838.2L141.3,838.5L137.9,839L131.70000000000002,838L130.10000000000002,838.2L128.90000000000003,838.1L126.60000000000004,837.1L123.30000000000004,837.4L119.50000000000004,836.6L117.40000000000005,836.6L115.60000000000005,837.5L114.60000000000005,837.8L112.70000000000005,837.3L110.80000000000004,837.3L110.00000000000004,837L109.10000000000004,836.4L108.20000000000003,836L107.20000000000003,835.8L106.10000000000004,836.0999999999999L105.30000000000004,836.4999999999999L103.90000000000003,837.5999999999999L103.00000000000003,837.8L101.80000000000003,837.1999999999999L100.90000000000002,835.9L100.40000000000002,834.3L100.40000000000002,832.9L101.20000000000002,831.3L103.60000000000002,828.5L104.60000000000002,826.9L105.40000000000002,823.5L105.50000000000001,821.4L105.00000000000001,820.1L104.00000000000001,820L101.80000000000001,822.2L100.20000000000002,822.3000000000001L98.60000000000002,821.4000000000001L97.80000000000003,820.2L97.60000000000002,818.7L98.90000000000002,811L99.90000000000002,809.6L100.80000000000003,809.2L102.80000000000003,809.3000000000001L103.70000000000003,809.1L104.40000000000003,808.7L105.70000000000003,807.4000000000001L108.00000000000003,804.5000000000001L108.80000000000003,803.8000000000001L109.30000000000003,803.1L109.20000000000003,802.2L108.60000000000004,800.4000000000001L108.70000000000003,799.3000000000001L110.20000000000003,794.6L110.20000000000003,794.2L109.80000000000003,793.7L109.50000000000003,793.6L109.00000000000003,793.6L108.60000000000002,792.9L108.40000000000002,792.3L108.50000000000001,790.4L108.40000000000002,789.6L107.80000000000003,788.1L107.80000000000003,787.5L108.50000000000003,785.7L110.70000000000003,782.3000000000001L111.50000000000003,780.5000000000001L111.80000000000003,778.2000000000002L110.10000000000002,767.8000000000002L108.80000000000003,765.1000000000001L98.90000000000002,749.0000000000001L89.10000000000002,733.0000000000001L78.30000000000003,722.4000000000001L72.10000000000002,718.0000000000001L89.40000000000002,692.5000000000001L104.70000000000002,682.5000000000001L117.30000000000001,674.1000000000001L129.3,633.9000000000001L131.8,611.4000000000001L132,609.5000000000001L133.1,607.2000000000002L136.5,602.6000000000001L167.8,571.4000000000001L185.9,574.1000000000001L195.8,574.4000000000001L205.10000000000002,573.5000000000001Z" class="sm_state sm_state_SDN5856" opacity="1" stroke-opacity="1" stroke-width="1.8900000000000001" stroke-linejoin="round" transform="matrix(0.3545,0,0,0.3545,0,0)" style="-webkit-tap-highlight-color: rgba(0, 0, 0, 0); opacity: 1; cursor: pointer; stroke-opacity: 1; stroke-linejoin: round; fill-opacity: 1;" fill-opacity="1"/><path fill="#88a4bc" stroke="#ffffff" d="M167.8,571.4L136.5,602.6L133.1,607.2L132,609.5L131.8,611.4L129.3,633.9L117.30000000000001,674.1L104.70000000000002,682.5L89.40000000000002,692.5L72.10000000000002,718L63.60000000000002,705.6L63.50000000000002,704L65.80000000000003,695.4L66.20000000000003,694.8L67.10000000000004,693.8L67.30000000000004,693.0999999999999L67.30000000000004,691.8999999999999L67.50000000000004,690.6999999999998L67.90000000000005,689.5999999999998L68.90000000000005,687.4999999999998L69.20000000000005,686.3999999999997L69.00000000000004,683.8999999999997L67.50000000000004,679.3999999999997L66.70000000000005,674.9999999999998L65.80000000000004,674.2999999999997L64.40000000000003,674.2999999999997L58.80000000000003,674.8999999999997L58.20000000000003,674.5999999999998L58.20000000000003,672.7999999999998L58.00000000000003,672.1999999999998L56.50000000000003,670.7999999999998L51.70000000000003,669.1999999999998L49.60000000000003,668.0999999999998L47.50000000000003,666.0999999999998L45.70000000000003,663.4999999999998L44.50000000000003,660.6999999999998L44.20000000000003,657.7999999999998L47.60000000000003,638.9999999999999L48.60000000000003,635.9999999999999L48.80000000000003,634.8999999999999L48.70000000000003,633.8999999999999L52.80000000000003,621.5999999999999L49.500000000000036,599.8L65.90000000000003,581.3L84.50000000000003,553.8L88.90000000000003,551.5L96.00000000000003,551L102.80000000000003,543.4L104.50000000000003,543.6L107.80000000000003,543.7L109.50000000000003,544L111.20000000000003,544.7L112.90000000000003,545.9000000000001L114.70000000000003,547.6000000000001L116.50000000000003,548.7000000000002L118.20000000000003,549.6000000000001L124.50000000000003,551.7000000000002L129.00000000000003,553.7000000000002L130.70000000000002,553.9000000000002L133.3,553.7000000000002L135.9,552.8000000000002L145.4,547.3000000000002L155.1,543.6000000000001L157.5,543.0000000000001L159.7,542.8000000000001L161.89999999999998,542.9000000000001L163.79999999999998,543.4000000000001L165.1,544.2L166.1,545.8000000000001L166.4,547.2L166.3,548.2L165.8,549.5L164.9,551L162.6,554L154.4,562L153.1,563.7L152.29999999999998,565.8000000000001L152.29999999999998,567.5000000000001L153.1,568.9000000000001L154.7,570.0000000000001L156.89999999999998,570.6000000000001L167.79999999999998,571.4000000000001Z" class="sm_state sm_state_SDN5859" opacity="1" stroke-opacity="1" stroke-width="1.8900000000000001" stroke-linejoin="round" transform="matrix(0.3545,0,0,0.3545,0,0)" style="-webkit-tap-highlight-color: rgba(0, 0, 0, 0); opacity: 1; cursor: pointer; stroke-opacity: 1; stroke-linejoin: round; fill-opacity: 1;" fill-opacity="1"/><path fill="#88a4bc" stroke="#ffffff" d="M130.2,410.3L131.2,411.8L127.39999999999999,432.3L127.8,435.40000000000003L127.6,444.6L127.89999999999999,448.3L128.89999999999998,451.7L130.29999999999998,453.7L133.29999999999998,457L135.49999999999997,459.8L137.29999999999998,463.2L138.89999999999998,467.2L140.09999999999997,472.7L140.29999999999995,475.3L140.09999999999997,477.7L139.59999999999997,479.8L138.69999999999996,482.2L126.09999999999997,503.3L107.09999999999997,524.4L102.89999999999996,532L100.99999999999996,538.1L100.79999999999995,541.1L101.59999999999995,542.9L102.79999999999995,543.4L95.99999999999996,551L88.89999999999996,551.5L84.49999999999996,553.8L65.89999999999995,581.3L49.49999999999995,599.8L52.79999999999995,621.5999999999999L48.699999999999946,633.8999999999999L48.39999999999995,633.5999999999999L47.89999999999995,634.4999999999999L47.09999999999995,633.9999999999999L44.799999999999955,634.4999999999999L40.899999999999956,635.6999999999999L40.299999999999955,636.1999999999999L39.49999999999996,636.4999999999999L41.09999999999996,629.7999999999998L41.09999999999996,629.0999999999998L41.09999999999996,628.3999999999997L40.899999999999956,627.5999999999998L36.59999999999996,613.9999999999998L34.59999999999996,610.8999999999997L34.49999999999996,610.1999999999997L35.799999999999955,608.1999999999997L38.799999999999955,601.1999999999997L37.99999999999996,600.3999999999997L31.899999999999956,598.0999999999998L24.499999999999957,593.0999999999998L22.799999999999958,595.6999999999998L20.89999999999996,597.4999999999998L18.59999999999996,598.7999999999997L15.799999999999958,599.5999999999997L13.499999999999957,599.8999999999996L10.999999999999957,599.8999999999996L8.499999999999957,599.3999999999996L6.399999999999958,598.3999999999996L5.1999999999999575,597.1999999999996L2.8999999999999577,592.7999999999996L1.2999999999999576,590.6999999999996L0.9999999999999576,589.9999999999995L1.0999999999999577,589.6999999999996L2.099999999999958,587.7999999999996L3.599999999999958,583.1999999999996L8.499999999999957,573.7999999999996L10.199999999999957,571.4999999999997L12.199999999999957,569.4999999999997L13.299999999999956,568.8999999999996L19.699999999999957,566.2999999999996L20.599999999999955,565.5999999999996L26.099999999999955,559.7999999999996L28.199999999999957,556.9999999999997L28.699999999999957,554.4999999999997L27.999999999999957,553.0999999999997L25.899999999999956,550.4999999999997L25.099999999999955,549.0999999999997L24.899999999999956,547.8999999999996L24.799999999999955,544.3999999999996L23.999999999999954,541.9999999999997L20.199999999999953,538.3999999999996L19.09999999999995,536.0999999999997L19.09999999999995,534.6999999999997L19.199999999999953,533.6999999999997L18.999999999999954,532.7999999999997L18.099999999999955,531.5999999999997L16.699999999999957,530.2999999999997L16.799999999999958,529.7999999999997L18.199999999999957,527.3999999999997L23.699999999999957,520.3999999999997L25.099999999999955,518.9999999999998L26.799999999999955,517.7999999999997L36.19999999999995,513.2999999999997L37.399999999999956,512.4999999999998L39.59999999999996,510.39999999999975L40.899999999999956,509.59999999999974L42.49999999999996,509.2999999999997L43.899999999999956,508.7999999999997L44.799999999999955,507.6999999999997L44.899999999999956,505.8999999999997L44.49999999999996,503.9999999999997L43.899999999999956,502.7999999999997L42.899999999999956,502.09999999999974L39.49999999999996,501.4999999999997L38.49999999999996,500.9999999999997L37.799999999999955,500.09999999999974L37.299999999999955,498.69999999999976L37.09999999999995,497.9999999999998L37.19999999999995,497.4999999999998L37.69999999999995,496.4999999999998L37.99999999999995,496.19999999999976L38.79999999999995,495.89999999999975L39.099999999999945,495.4999999999998L39.099999999999945,495.0999999999998L38.599999999999945,494.3999999999998L38.39999999999994,493.99999999999983L37.599999999999945,487.3999999999998L37.099999999999945,486.5999999999998L35.29999999999995,485.1999999999998L33.89999999999995,482.8999999999998L34.99999999999995,480.7999999999998L37.39999999999995,478.8999999999998L39.99999999999995,477.6999999999998L51.89999999999995,474.49999999999983L52.49999999999995,473.99999999999983L52.79999999999995,473.09999999999985L52.699999999999946,472.59999999999985L51.79999999999995,470.59999999999985L51.49999999999995,469.59999999999985L50.99999999999995,466.1999999999999L50.99999999999995,464.59999999999985L51.49999999999995,463.59999999999985L53.69999999999995,462.1999999999999L54.799999999999955,461.09999999999985L55.19999999999995,459.99999999999983L55.19999999999995,458.8999999999998L55.49999999999995,457.3999999999998L56.19999999999995,456.0999999999998L61.59999999999995,450.4999999999998L62.799999999999955,449.4999999999998L64.09999999999995,448.69999999999976L66.09999999999995,447.89999999999975L66.59999999999995,447.39999999999975L69.29999999999995,442.4999999999998L69.69999999999996,441.0999999999998L70.49999999999996,433.8999999999998L70.29999999999995,431.7999999999998L69.79999999999995,429.8999999999998L68.49999999999996,428.1999999999998L67.19999999999996,426.79999999999984L66.19999999999996,425.1999999999998L65.79999999999995,423.3999999999998L66.19999999999996,421.49999999999983L67.29999999999995,420.09999999999985L71.99999999999996,417.1999999999999L75.79999999999995,412.4999999999999L77.39999999999995,411.39999999999986L81.69999999999995,410.89999999999986L90.79999999999994,412.89999999999986L95.29999999999994,412.39999999999986L103.09999999999994,409.4999999999999L106.99999999999994,408.6999999999999L113.79999999999994,408.6999999999999L120.99999999999994,409.7999999999999L127.89999999999995,412.1999999999999L129.49999999999994,412.2999999999999L130.19999999999993,410.2999999999999Z" class="sm_state sm_state_SDN5858" opacity="1" stroke-opacity="1" stroke-width="1.8900000000000001" stroke-linejoin="round" transform="matrix(0.3545,0,0,0.3545,0,0)" style="-webkit-tap-highlight-color: rgba(0, 0, 0, 0); opacity: 1; cursor: pointer; stroke-opacity: 1; stroke-linejoin: round; fill-opacity: 1;" fill-opacity="1"/><path fill="#88a4bc" stroke="#ffffff" d="M338.9,351.1L337.4,351.3L305.7,351.5L305,352L304.5,353.1L317.2,462.5L317.5,463.3L318.1,463.90000000000003L320.40000000000003,465.50000000000006L323.00000000000006,470.50000000000006L329.30000000000007,490.90000000000003L338.20000000000005,516.2L335.70000000000005,530.2L335.70000000000005,530.9000000000001L336.00000000000006,531.8000000000001L339.80000000000007,538.0000000000001L340.50000000000006,540.4000000000001L340.30000000000007,542.6000000000001L339.50000000000006,545.6000000000001L339.30000000000007,546.1000000000001L338.6000000000001,547.2000000000002L332.6000000000001,554.4000000000002L331.7000000000001,555.2000000000002L331.5000000000001,555.8000000000002L331.4000000000001,556.8000000000002L331.1000000000001,561.4000000000002L330.9000000000001,562.2000000000002L329.2000000000001,564.8000000000002L328.4000000000001,566.7000000000002L327.1000000000001,568.9000000000002L318.00000000000006,580.3000000000002L316.40000000000003,584.0000000000002L316.1,584.9000000000002L315.5,593.3000000000002L315.9,600.6000000000001L315.9,601.5000000000001L315.7,602.2000000000002L315.59999999999997,603.0000000000001L313.9,607.4000000000001L310.7,612.8000000000001L310.5,613.6L310.4,614.3000000000001L310.5,615.7L312.7,624.1L312.8,624.8000000000001L312.7,625.6L312.4,627.9L312.4,630.9L312.5,631.5L312.7,632.1L315.7,636.8000000000001L316.4,638.2L316.79999999999995,640.2L316.99999999999994,641.6L320.79999999999995,648.9L312.49999999999994,647.1999999999999L289.19999999999993,647.5999999999999L286.99999999999994,646.8999999999999L284.19999999999993,645.6999999999998L281.19999999999993,643.3999999999999L278.5999999999999,640.5999999999999L277.3999999999999,639.5999999999999L275.3999999999999,638.3999999999999L271.99999999999994,637.1999999999998L269.49999999999994,636.8999999999999L267.49999999999994,637.0999999999999L265.59999999999997,637.3999999999999L263.49999999999994,637.2999999999998L261.29999999999995,636.1999999999998L258.29999999999995,633.3999999999999L252.39999999999995,624.0999999999999L247.39999999999995,618.9999999999999L243.59999999999994,615.8999999999999L241.99999999999994,613.7999999999998L241.29999999999995,612.5999999999998L241.59999999999997,611.4999999999998L241.89999999999998,610.9999999999998L242.49999999999997,610.4999999999998L243.69999999999996,609.9999999999998L248.99999999999997,608.4999999999998L250.19999999999996,607.6999999999998L250.89999999999995,606.7999999999998L250.69999999999996,605.5999999999998L250.09999999999997,604.3999999999997L249.09999999999997,603.2999999999997L236.09999999999997,592.6999999999997L233.19999999999996,591.2999999999997L225.19999999999996,586.4999999999998L213.99999999999997,576.1999999999998L212.39999999999998,575.1999999999998L210.39999999999998,574.2999999999998L207.79999999999998,573.7999999999998L205.1,573.4999999999999L195.79999999999998,574.3999999999999L185.89999999999998,574.0999999999999L167.79999999999998,571.3999999999999L156.89999999999998,570.5999999999999L154.7,569.9999999999999L153.1,568.8999999999999L152.29999999999998,567.4999999999999L152.29999999999998,565.7999999999998L153.1,563.6999999999998L154.4,561.9999999999998L162.6,553.9999999999998L164.9,550.9999999999998L165.8,549.4999999999998L166.3,548.1999999999998L166.4,547.1999999999998L166.1,545.7999999999998L165.1,544.1999999999998L163.79999999999998,543.3999999999999L161.89999999999998,542.8999999999999L159.7,542.7999999999998L157.5,542.9999999999999L155.1,543.5999999999999L145.4,547.3L135.9,552.8L133.3,553.6999999999999L130.70000000000002,553.9L129.00000000000003,553.6999999999999L124.50000000000003,551.6999999999999L118.20000000000003,549.5999999999999L116.50000000000003,548.6999999999999L114.70000000000003,547.5999999999999L112.90000000000003,545.8999999999999L111.20000000000003,544.6999999999998L109.50000000000003,543.9999999999998L107.80000000000003,543.6999999999998L104.50000000000003,543.5999999999998L102.80000000000003,543.3999999999997L101.60000000000002,542.8999999999997L100.80000000000003,541.0999999999998L101.00000000000003,538.0999999999998L102.90000000000003,531.9999999999998L107.10000000000004,524.3999999999997L126.10000000000004,503.2999999999997L138.70000000000005,482.1999999999997L139.60000000000005,479.7999999999997L140.10000000000005,477.6999999999997L140.30000000000004,475.2999999999997L140.10000000000005,472.6999999999997L138.90000000000006,467.1999999999997L137.30000000000007,463.1999999999997L135.50000000000006,459.7999999999997L133.30000000000007,456.9999999999997L130.30000000000007,453.6999999999997L128.90000000000006,451.6999999999997L127.90000000000006,448.2999999999997L127.60000000000007,444.59999999999974L127.80000000000007,435.39999999999975L127.40000000000006,432.2999999999997L131.20000000000007,411.7999999999997L130.20000000000007,410.2999999999997L130.20000000000007,392.39999999999975L130.20000000000007,377.9999999999998L130.20000000000007,363.5999999999998L130.20000000000007,349.1999999999998L130.20000000000007,291.3999999999998L130.10000000000008,276.8999999999998L130.10000000000008,262.3999999999998L130.10000000000008,247.7999999999998L130.10000000000008,233.2999999999998L130.10000000000008,174.7999999999998L130.10000000000008,143.2999999999998L139.60000000000008,143.2999999999998L151.4000000000001,143.2999999999998L166.8000000000001,143.2999999999998L188.7000000000001,143.2999999999998L189.2000000000001,143.19999999999982L189.4000000000001,142.7999999999998L189.4000000000001,142.3999999999998L190.60000000000008,142.9999999999998L338.1000000000001,142.9999999999998L338.9000000000001,351.0999999999998Z" class="sm_state sm_state_SDN881" opacity="1" stroke-opacity="1" stroke-width="1.8900000000000001" stroke-linejoin="round" transform="matrix(0.3545,0,0,0.3545,0,0)" style="-webkit-tap-highlight-color: rgba(0, 0, 0, 0); opacity: 1; cursor: pointer; stroke-opacity: 1; stroke-linejoin: round; fill-opacity: 1;" fill-opacity="1"/><desc style="-webkit-tap-highlight-color: rgba(0, 0, 0, 0);">Created with Raphal 2.1.0</desc><defs style="-webkit-tap-highlight-color: rgba(0, 0, 0, 0);"/><rect x="213.6437905316144" y="135.81373061828023" width="25.2" height="25.2" r="0" rx="0" ry="0" fill="#ff0067" stroke="#ffffff" stroke-width="2.52" opacity="0.8" transform="matrix(0.3545,0,0,0.3545,146.0484,95.8064)" class="sm_location sm_location_0" style="-webkit-tap-highlight-color: rgba(0, 0, 0, 0); opacity: 0.8; cursor: pointer;"/></svg>